<svg width="81" height="38" viewBox="0 0 81 38" fill="none" xmlns="http://www.w3.org/2000/svg">
  <path d="M46.4031 14.4567C46.3179 13.5973 45.9521 12.9297 45.3058 12.4538C44.6595 11.978 43.7824 11.7401 42.6744 11.7401C41.9216 11.7401 41.286 11.8466 40.7675 12.0597C40.249 12.2656 39.8513 12.5533 39.5743 12.9226C39.3044 13.2919 39.1695 13.7109 39.1695 14.1797C39.1553 14.5703 39.2369 14.9112 39.4145 15.2024C39.5992 15.4936 39.8513 15.7457 40.1709 15.9588C40.4905 16.1648 40.8598 16.3459 41.2789 16.5021C41.6979 16.6513 42.1453 16.7791 42.6212 16.8857L44.5814 17.3544C45.5331 17.5675 46.4067 17.8516 47.2021 18.2067C47.9976 18.5618 48.6865 18.9986 49.2689 19.517C49.8513 20.0355 50.3023 20.6463 50.6219 21.3494C50.9486 22.0526 51.1155 22.8587 51.1226 23.7678C51.1155 25.103 50.7746 26.2607 50.0999 27.2408C49.4323 28.2138 48.4664 28.9702 47.2021 29.5099C45.945 30.0426 44.4287 30.3089 42.6531 30.3089C40.8918 30.3089 39.3577 30.0391 38.0509 29.4993C36.7512 28.9595 35.7355 28.1605 35.004 27.1023C34.2796 26.0369 33.8996 24.7195 33.8641 23.1499H38.3279C38.3776 23.8814 38.5871 24.4922 38.9564 24.9822C39.3328 25.4652 39.8335 25.831 40.4585 26.0795C41.0906 26.321 41.8044 26.4418 42.5999 26.4418C43.3811 26.4418 44.0594 26.3281 44.6347 26.1009C45.2171 25.8736 45.6681 25.5575 45.9877 25.1527C46.3073 24.7479 46.4671 24.2827 46.4671 23.7571C46.4671 23.267 46.3215 22.8551 46.0303 22.5213C45.7462 22.1875 45.3271 21.9034 44.7732 21.669C44.2263 21.4347 43.5551 21.2216 42.7597 21.0298L40.384 20.4332C38.5445 19.9858 37.0921 19.2862 36.0267 18.3345C34.9614 17.3828 34.4323 16.1009 34.4394 14.4886C34.4323 13.1676 34.7838 12.0135 35.4941 11.0263C36.2114 10.0391 37.195 9.26847 38.445 8.71449C39.695 8.16051 41.1155 7.88352 42.7064 7.88352C44.3257 7.88352 45.7391 8.16051 46.9465 8.71449C48.161 9.26847 49.1056 10.0391 49.7803 11.0263C50.455 12.0135 50.803 13.157 50.8243 14.4567H46.4031Z" fill="#0039B5"/>
</svg>
