<svg width="19" height="24" viewBox="0 0 19 24" fill="#0039B5" xmlns="http://www.w3.org/2000/svg">
<path d="M13.4031 7.45668C13.3179 6.5973 12.9521 5.92969 12.3058 5.45383C11.6595 4.97798 10.7824 4.74006 9.67445 4.74006C8.92161 4.74006 8.28596 4.84659 7.76749 5.05966C7.24902 5.26562 6.8513 5.55327 6.57431 5.92258C6.30442 6.2919 6.16948 6.71094 6.16948 7.17969C6.15527 7.57031 6.23695 7.91122 6.41451 8.20241C6.59917 8.49361 6.8513 8.74574 7.1709 8.95881C7.4905 9.16477 7.85982 9.34588 8.27885 9.50213C8.69789 9.65128 9.14533 9.77912 9.62118 9.88565L11.5814 10.3544C12.5331 10.5675 13.4067 10.8516 14.2021 11.2067C14.9976 11.5618 15.6865 11.9986 16.2689 12.517C16.8513 13.0355 17.3023 13.6463 17.6219 14.3494C17.9486 15.0526 18.1155 15.8587 18.1226 16.7678C18.1155 18.103 17.7746 19.2607 17.0999 20.2408C16.4323 21.2138 15.4664 21.9702 14.2021 22.5099C12.945 23.0426 11.4287 23.3089 9.65314 23.3089C7.89178 23.3089 6.35769 23.0391 5.05087 22.4993C3.75115 21.9595 2.73553 21.1605 2.004 20.1023C1.27956 19.0369 0.899592 17.7195 0.86408 16.1499H5.32786C5.37757 16.8814 5.58709 17.4922 5.95641 17.9822C6.33283 18.4652 6.83354 18.831 7.45854 19.0795C8.09064 19.321 8.80442 19.4418 9.59988 19.4418C10.3811 19.4418 11.0594 19.3281 11.6347 19.1009C12.2171 18.8736 12.6681 18.5575 12.9877 18.1527C13.3073 17.7479 13.4671 17.2827 13.4671 16.7571C13.4671 16.267 13.3215 15.8551 13.0303 15.5213C12.7462 15.1875 12.3271 14.9034 11.7732 14.669C11.2263 14.4347 10.5551 14.2216 9.75968 14.0298L7.38397 13.4332C5.54448 12.9858 4.09206 12.2862 3.02672 11.3345C1.96138 10.3828 1.43226 9.10085 1.43936 7.48864C1.43226 6.16761 1.78382 5.01349 2.49405 4.02628C3.21138 3.03906 4.19505 2.26847 5.44505 1.71449C6.69505 1.16051 8.1155 0.883522 9.70641 0.883522C11.3257 0.883522 12.7391 1.16051 13.9465 1.71449C15.161 2.26847 16.1056 3.03906 16.7803 4.02628C17.455 5.01349 17.803 6.15696 17.8243 7.45668H13.4031Z" fill="#0039B5"/>
</svg>
